<mxfile host="65bd71144e">
    <diagram id="kzKEXxAitlW_Tomx7wur" name="Página-1">
        <mxGraphModel dx="771" dy="547" grid="1" gridSize="10" guides="1" tooltips="1" connect="1" arrows="1" fold="1" page="1" pageScale="1" pageWidth="827" pageHeight="1169" math="0" shadow="0">
            <root>
                <mxCell id="0"/>
                <mxCell id="1" parent="0"/>
                <UserObject label="# backend/models.py &#xa; &#xa;from sqlalchemy import Column, Integer, String, DateTime &#xa;from sqlalchemy.sql import func &#xa;from .database import Base &#xa; &#xa; &#xa;class ContentItem(Base): &#xa;    __tablename__ = &quot;content_items&quot; &#xa; &#xa;    id = Column(Integer, primary_key=True, index=True) &#xa; &#xa;    # O campo chave para flexibilidade &#xa;    # Ex: &quot;portfolio&quot;, &quot;blog_post&quot;, &quot;testimonial&quot; &#xa;    item_type = Column(String, index=True, nullable=False) &#xa; &#xa;    # Campos principais &#xa;    title = Column(String, index=True, nullable=False) &#xa;    content = Column(String, nullable=False) &#xa; &#xa;    # Campos opcionais para enriquecer o conteúdo &#xa;    image_url = Column(String, nullable=True) &#xa;    tags = Column(String, nullable=True)  # Ex: &quot;React, FastAPI, Python&quot; &#xa; &#xa;    # Links genéricos &#xa;    link_1_url = Column(String, nullable=True) &#xa;    link_1_text = Column(String, nullable=True)  # Ex: &quot;GitHub Repo&quot; &#xa; &#xa;    # Datas de controle &#xa;    created_at = Column(DateTime(timezone=True), server_default=func.now()) &#xa;    updated_at = Column(DateTime(timezone=True), onupdate=func.now())" link="# backend/models.py &#xa; &#xa;from sqlalchemy import Column, Integer, String, DateTime &#xa;from sqlalchemy.sql import func &#xa;from .database import Base &#xa; &#xa; &#xa;class ContentItem(Base): &#xa;    __tablename__ = &quot;content_items&quot; &#xa; &#xa;    id = Column(Integer, primary_key=True, index=True) &#xa; &#xa;    # O campo chave para flexibilidade &#xa;    # Ex: &quot;portfolio&quot;, &quot;blog_post&quot;, &quot;testimonial&quot; &#xa;    item_type = Column(String, index=True, nullable=False) &#xa; &#xa;    # Campos principais &#xa;    title = Column(String, index=True, nullable=False) &#xa;    content = Column(String, nullable=False) &#xa; &#xa;    # Campos opcionais para enriquecer o conteúdo &#xa;    image_url = Column(String, nullable=True) &#xa;    tags = Column(String, nullable=True)  # Ex: &quot;React, FastAPI, Python&quot; &#xa; &#xa;    # Links genéricos &#xa;    link_1_url = Column(String, nullable=True) &#xa;    link_1_text = Column(String, nullable=True)  # Ex: &quot;GitHub Repo&quot; &#xa; &#xa;    # Datas de controle &#xa;    created_at = Column(DateTime(timezone=True), server_default=func.now()) &#xa;    updated_at = Column(DateTime(timezone=True), onupdate=func.now())" id="3">
                    <mxCell style="text;whiteSpace=wrap;html=1;" parent="1" vertex="1">
                        <mxGeometry x="30" y="30" width="440" height="470" as="geometry"/>
                    </mxCell>
                </UserObject>
            </root>
        </mxGraphModel>
    </diagram>
</mxfile>